<?xml version="1.0" encoding="UTF-8" standalone="no"?>
<!-- Created with Inkscape (http://www.inkscape.org/) -->

<svg
	version="1.1"
	id="svg2"
	width="1074"
	height="480"
	viewBox="0 0 537.00001 240"
	xmlns="http://www.w3.org/2000/svg"
	xmlns:svg="http://www.w3.org/2000/svg"
>
	<style type="text/css" media="screen">
		<![CDATA[

		#bases {
			fill: #1d3243ff;
			font-family: monospace;
			font-weight: normal;
			letter-spacing: 0.1em;
			font-size: 10px;
		}
				
		#neon {
			font-weight: normal;
			fill: #feef8fff;
			font-size: 12px;
			text-shadow: 0 0 1px red,
						-1px 0 5px red,
						0px -1px 5px red, 
						-1px -1px 5px #e43808ff,
						1px 1px 5px #e43808ff,
						0 0 0.5em white,
						0 0 20px red,
						0 0 30px orange,
						0 0 40px orange,
						0 0 50px orange;
		}
		#texts {
			font-weight: normal;
			fill: #6fb7c2ff;
			text-shadow: 0px 0px 0px #42aaff;
		}
		#else {
			font-weight: normal;
			fill: #56769aff;
			opacity: 1.0;
			text-shadow: 0px 0px 1px #002137;
		}
		#python {
			font-weight: normal;
			fill: orange;
			text-shadow: 
						0 0 1px #cc6c00ff,
						0 1px 1px #cc6c00ff,
						1px 0 1px #cc6c00ff,
						0px 0px 1px red,
						1px 1px 1px red,
						-1px 0 3px #333333,
						0px -1px 3px #333333, 
						-1px -1px 3px #333333,
						1px 1px 5px orange,
						0px 0px 0.8em orange;
		}
		]]>
	</style>
	<defs id="defs6" />
	<g id="background">
		<rect
			style="opacity:0.99;fill:#010d19;fill-opacity:1;stroke:#000000;stroke-width:0.991241;stroke-linecap:round"
			id="rect-bg"
			width="1074"
			height="480"
			x="0.0"
			y="0.0" />
	</g>
	<g id="map">
		<path
			style="display:inline;fill:#15383c;fill-opacity:1;stroke-width:0.848715"
			d="m 118.65049,239.25173 c 0,-0.61284 -0.43636,-1.15602 -0.9697,-1.2071 -0.53333,-0.051 -1.40603,-0.17641 -1.93938,-0.27858 -0.53332,-0.10213 -1.3258,-0.22748 -1.76108,-0.27858 -0.43526,-0.0511 -2.0716,-2.18205 -3.63632,-4.73551 -1.56473,-2.55347 -3.17221,-4.75409 -3.57221,-4.89028 -1.14947,-0.39136 -0.84587,-3.0951 0.34755,-3.0951 1.26859,0 0.30181,-3.69027 -1.26497,-4.82839 -0.70892,-0.51496 -0.87559,-0.10722 -0.54333,1.3294 0.30823,1.3327 0.0921,1.97299 -0.60576,1.79416 -0.59673,-0.15295 -1.14035,-1.58683 -1.20803,-3.18646 -0.3626,-8.57055 -1.72158,-17.22296 -2.93936,-18.71444 -0.759984,-0.93078 -1.114442,-2.02371 -0.787694,-2.42872 0.326744,-0.40499 0.09051,-1.90501 -0.524756,-3.33336 -0.615366,-1.42835 -1.229781,-5.33914 -1.365373,-8.69065 l -0.246502,-6.09365 -7.43078,-5.24931 c -4.086925,-2.88712 -7.430771,-5.63863 -7.430771,-6.11444 0,-0.47582 -0.545454,-1.13309 -1.212114,-1.46061 -0.666662,-0.32751 -2.848457,-3.00687 -4.848442,-5.95413 -3.564363,-5.25261 -4.533292,-8.61122 -2.730491,-9.46475 0.498214,-0.23587 0.667949,-1.55185 0.377192,-2.9244 -0.456595,-2.1554 0.08079,-3.06867 3.942604,-6.70073 4.742507,-4.46032 5.03385,-5.1456 3.500807,-8.23445 -0.681983,-1.37408 -1.474673,-1.8388 -2.666657,-1.56341 -2.484254,0.57397 -8.807182,-2.68382 -10.833799,-5.58195 -0.965317,-1.38042 -2.576961,-2.6243 -3.581428,-2.76415 -1.004466,-0.13988 -3.624404,-1.58769 -5.822079,-3.2174 -3.039533,-2.25399 -4.663949,-2.91912 -6.78782,-2.77931 -3.906083,0.25716 -8.719549,-0.75171 -10.451341,-2.19051 -0.804494,-0.66838 -2.435534,-2.02851 -3.62453,-3.02252 -1.668505,-1.39486 -2.192293,-2.78873 -2.295414,-6.10839 -0.08737,-2.81241 -0.680036,-4.76368 -1.712319,-5.63748 -0.935857,-0.79217 -1.855286,-3.404316 -2.257928,-6.414879 -0.374744,-2.802005 -0.992877,-4.626038 -1.378937,-4.069079 -0.38484,0.555221 -0.280539,3.34939 0.231702,6.209269 0.662368,3.697829 0.610111,5.836209 -0.180958,7.403099 -0.88948,1.76189 -1.296187,1.98513 -2.030084,1.11425 -0.937629,-1.11266 -1.076172,-2.52557 -1.279082,-13.044994 -0.06919,-3.588629 -0.604232,-6.464329 -1.32684,-7.131805 -0.702298,-0.648701 -1.156211,-2.934043 -1.080755,-5.44133 0.144923,-4.816042 3.245808,-10.421419 8.909341,-16.105203 2.579872,-2.589094 3.183488,-3.796754 2.827199,-5.656386 -0.252718,-1.319022 -0.02186,-2.36445 0.521449,-2.36445 0.535951,0 1.657991,-1.308658 2.493427,-2.908126 0.835433,-1.599467 1.864621,-3.072063 2.287085,-3.272425 0.422468,-0.200359 0.768118,-1.816592 0.768118,-3.591607 0,-2.688116 -0.300118,-3.207948 -1.796328,-3.111445 -0.987987,0.06373 -3.580694,-0.816183 -5.76158,-1.955345 l -3.965245,-2.071196 -4.258122,1.398218 c -5.078702,1.667674 -5.067026,1.666758 -5.067026,0.397498 0,-0.550401 0.981808,-1.396419 2.181798,-1.880039 1.199992,-0.483628 1.454192,-0.722921 0.564893,-0.531777 -0.889302,0.191129 -4.162002,1.849224 -7.272666,3.684608 -3.110665,1.835383 -8.1648223,3.97735 -11.2314637,4.759922 -5.20361075,1.327912 -5.57570676,1.337485 -5.57570676,0.143464 0,-1.441008 1.98302256,-2.897314 5.71688216,-4.198398 l 2.5254691,-0.880016 -2.3844746,0.137163 c -3.8941271,0.224081 -3.6502945,-2.221152 0.5500843,-5.516364 2.0253846,-1.588917 4.3575865,-2.899576 5.1826735,-2.912564 2.099461,-0.03305 4.653777,-1.664581 4.204395,-2.685474 -0.590982,-1.34257 5.232901,-4.150662 7.476829,-3.605087 1.596387,0.388135 1.940042,0.133856 1.940042,-1.435435 0,-1.396589 0.506953,-1.907123 1.893748,-1.907123 2.070173,0 7.004796,-1.497486 7.845707,-2.380898 0.840161,-0.882628 8.809263,-0.859129 13.048226,0.03847 2.133312,0.451731 5.712748,0.829302 7.954299,0.839046 2.241553,0.0098 5.12823,0.385146 6.414843,0.834218 1.6832,0.587491 4.199186,0.594675 8.970777,0.02551 7.967645,-0.950243 19.345961,0.588636 20.246217,2.73823 0.572955,1.368066 8.292199,2.168276 8.292199,0.859602 0,-0.399189 -1.262405,-0.725803 -2.805322,-0.725803 -1.599096,0 -3.04532,-0.4791 -3.363478,-1.11424 -0.386476,-0.771514 0.06555,-1.114238 1.46952,-1.114238 1.713642,0 1.836212,-0.176731 0.791421,-1.141099 -1.034337,-0.954726 -0.786535,-1.500681 1.517222,-3.342718 2.738267,-2.189465 6.269387,-2.959876 6.269387,-1.367839 0,0.596275 0.35606,0.607411 1.24997,0.0391 1.90294,-1.209812 5.75152,0.593581 6.62564,3.104679 0.55584,1.596834 0.29155,2.487677 -1.07026,3.607424 -0.9946,0.81782 -2.2888,1.259491 -2.87598,0.981494 -0.5872,-0.278014 -2.4393,-0.274675 -4.11579,0.0076 -4.544389,0.764602 -1.48867,1.70567 6.15387,1.895202 7.26598,0.180165 8.57788,-0.220899 8.57788,-2.622302 0,-2.063037 2.31289,-3.724034 4.35125,-3.124841 0.80678,0.237154 1.46687,1.265615 1.46687,2.285447 0,2.603303 3.21647,3.83177 6.05078,2.31099 3.49046,-1.872834 5.58548,-1.480374 5.58548,1.046327 0,2.958149 -4.90519,4.78661 -12.48498,4.653908 -4.23411,-0.07413 -5.05879,0.07825 -3.68647,0.681305 1.64931,0.724747 1.66019,0.867851 0.16225,2.135817 -0.88303,0.747468 -3.65906,1.736408 -6.16895,2.197652 -5.65187,1.038656 -12.06651,5.216129 -11.08906,7.221648 0.76529,1.570202 3.79327,3.400558 6.58106,3.978132 1.54941,0.321006 1.98095,1.062689 2.06366,3.54663 0.0575,1.727414 0.36598,3.340989 0.68545,3.585726 1.08915,0.834328 3.60058,-0.439063 4.52017,-2.291886 0.5046,-1.016711 2.62527,-2.674437 4.7126,-3.683832 2.13473,-1.032324 4.06096,-2.646604 4.40271,-3.689724 0.33417,-1.019949 1.15239,-2.3076 1.81824,-2.86144 0.66586,-0.553841 1.8936,-1.997871 2.72833,-3.208958 1.21549,-1.763531 2.05965,-2.156559 4.23966,-1.973917 4.13458,0.346399 7.33347,2.267997 7.33347,4.405297 0,1.611435 0.20612,1.731562 1.52843,0.890862 2.02375,-1.286628 3.28468,0.162429 3.30515,3.79826 0.008,1.45037 0.55666,3.052078 1.21886,3.559361 0.95889,0.734545 0.90953,1.064939 -0.24241,1.622843 -0.79554,0.385283 -0.99523,0.705634 -0.44378,0.711894 0.59809,0.0066 0.92869,1.809712 0.81935,4.468082 -0.10083,2.451188 0.21159,4.643683 0.69429,4.872212 0.4827,0.228553 0.87762,1.274174 0.87762,2.323667 0,1.826206 -0.17546,1.886673 -4.08478,1.407797 -2.24661,-0.27521 -4.25008,-0.627003 -4.45212,-0.781784 -0.75078,-0.575117 0.95171,-3.364896 2.05685,-3.370481 0.63072,-0.0032 1.65115,-0.838864 2.26763,-1.857065 1.3074,-2.159325 -0.0104,-2.515223 -2.61849,-0.707155 -0.90768,0.629255 -3.92112,1.419094 -6.69654,1.75518 -2.77542,0.336092 -5.7762,1.194667 -6.66838,1.907944 -1.53846,1.229955 -1.47206,1.241979 1.28691,0.233059 4.32528,-1.581716 6.63888,-0.941446 5.9623,1.650021 -0.35445,1.357683 -0.0497,2.410001 0.86667,2.992594 0.77736,0.494216 1.41338,1.35905 1.41338,1.921857 0,1.513691 -3.32061,1.241304 -5.30073,-0.434804 -1.58661,-1.343015 -1.94286,-1.370823 -4.51389,-0.352339 -1.53523,0.608165 -2.79133,1.431441 -2.79133,1.829506 0,0.398061 -0.65454,0.723748 -1.45454,0.723748 -0.8,0 -2.32725,0.668544 -3.3939,1.485654 -1.06667,0.817105 -2.58627,1.485651 -3.37689,1.485651 -0.79062,0 -3.48685,1.504225 -5.9916,3.342722 -2.50476,1.838492 -4.91241,3.342717 -5.35032,3.342717 -0.43792,0 -0.79621,0.443136 -0.79621,0.984755 0,1.354242 -4.13263,4.215031 -6.088936,4.215031 -0.880185,0 -2.064641,0.664595 -2.632131,1.47688 -0.567493,0.812285 -2.092203,1.680765 -3.388255,1.929953 -3.30546,0.635525 -4.741849,2.228956 -4.961596,5.504044 -0.25837,3.850476 -1.234216,5.945651 -2.769296,5.945651 -1.615777,0 -2.462622,-1.649334 -2.462622,-4.796279 0,-2.145578 -0.372493,-2.50335 -3.030273,-2.910545 -4.432211,-0.679056 -8.40836,-0.567355 -9.071698,0.254827 -0.319089,0.395511 -1.981195,0.706577 -3.693559,0.69126 -5.472181,-0.04896 -8.586415,1.091996 -10.421925,3.818208 -3.544465,5.264449 -3.945063,6.445029 -3.654954,10.771349 l 0.296933,4.4278 3.36864,-0.12759 c 1.852745,-0.0703 3.553558,-0.55261 3.779579,-1.07204 0.764402,-1.7567 4.872613,-4.37154 6.868187,-4.37154 1.45134,0 1.983454,0.48191 1.983454,1.79631 0,2.56431 -0.964524,4.1463 -2.527964,4.1463 -0.791612,0 -1.350787,0.76289 -1.350787,1.84291 0,1.91257 2.272998,2.78483 6.302977,2.4188 1.776572,-0.1614 1.939373,0.26033 1.939373,5.02362 v 5.19979 l 3.878753,0.23536 c 2.13332,0.12944 4.284915,0.54086 4.781336,0.91426 0.548365,0.41248 2.140318,-0.0443 4.056475,-1.16388 3.800701,-2.22072 9.348129,-2.57523 8.494675,-0.54285 -0.335484,0.79891 -0.230328,0.98065 0.272858,0.47153 1.486317,-1.50388 4.836006,-1.87196 6.133846,-0.67401 0.7548,0.6967 2.85071,1.13101 5.45808,1.13101 3.91325,0 4.69113,0.35539 10.30542,4.70813 3.33997,2.58948 8.18054,5.47364 10.75684,6.40926 2.57628,0.93563 4.80101,2.07613 4.94384,2.53444 0.14283,0.45831 0.70907,1.88875 1.25831,3.17876 0.7902,1.856 0.69203,2.58031 -0.47045,3.47081 -0.96835,0.74182 -1.20045,1.58805 -0.68098,2.48292 0.72556,1.24987 0.81723,1.23134 1.15604,-0.23376 0.33645,-1.4549 0.63349,-1.51857 3.46573,-0.74282 1.70375,0.46665 3.53409,1.22571 4.06741,1.68679 0.53334,0.46108 2.63087,1.02813 4.66119,1.2601 3.24252,0.37047 5.95916,1.68215 12.55079,6.05989 2.60416,1.72951 2.26895,6.73108 -0.58819,8.77645 -3.75102,2.68528 -5.47258,6.05263 -5.46967,10.69863 0.002,3.04116 -0.63924,5.23657 -2.18014,7.46515 -2.08718,3.01867 -2.37952,3.15701 -6.67178,3.15701 -2.46892,0 -4.9403,0.41783 -5.49197,0.92853 -0.55166,0.51069 -0.93493,2.59989 -0.85175,4.64267 0.18247,4.47907 -4.97252,13.74228 -7.64753,13.74228 -1.04556,0 -1.40307,0.3903 -1.02063,1.11424 0.32372,0.61284 0.83186,1.57256 1.12919,2.1327 0.7564,1.42498 -2.15597,3.43851 -4.97346,3.43851 -1.86551,0 -2.35496,0.38597 -2.35496,1.85706 0,1.15551 -0.54949,1.85707 -1.45453,1.85707 -1.6467,0 -1.9504,1.16321 -0.48485,1.85706 1.32039,0.62513 1.22109,3.0545 -0.19592,4.79261 -0.90649,1.11195 -0.90711,1.81142 -0.003,3.14694 1.19052,1.75813 1.0434,7.37396 -0.25416,9.70258 -0.88669,1.59148 -2.45611,1.71014 -2.45611,0.18571 z m 3.52808,0 c 0.68716,-1.37178 1.28578,-1.36795 3.6875,0.0236 1.78295,1.03306 1.72058,1.09062 -1.18168,1.09062 -2.32513,0 -2.92938,-0.26869 -2.50582,-1.11424 z m 376.34735,-2.89769 c -0.93333,-0.53912 -1.69695,-1.30831 -1.69695,-1.70928 0,-0.71025 6.22662,-2.44989 8.76875,-2.44989 0.6991,0 3.60261,-1.23011 6.45228,-2.7336 3.74769,-1.97724 5.47446,-2.50897 6.24097,-1.92178 1.49964,1.14878 0.43,2.12562 -4.785,4.37006 -2.50575,1.07843 -5.65519,2.53962 -6.99885,3.2471 -3.65369,1.9238 -6.09071,2.28942 -7.9812,1.19739 z m -27.22099,-5.45911 c -0.23483,-0.30642 -0.20984,-1.64889 0.0553,-2.98329 0.45378,-2.28545 0.68336,-2.41033 3.95775,-2.153 1.91179,0.15021 3.59192,0.57347 3.73353,0.94052 0.34691,0.89871 -1.66087,2.68896 -4.28896,3.82436 -2.50365,1.08162 -2.88247,1.12231 -3.45747,0.37141 z m 49.49079,-1.85707 c -1.46265,-3.1069 8.22546,-8.56325 12.53432,-7.05932 3.08581,1.07706 2.87787,1.99179 -0.573,2.52049 -1.57276,0.24094 -3.60399,1.06828 -4.51393,1.8385 -0.90988,0.77021 -2.25496,1.40039 -2.98905,1.40039 -0.73407,0 -1.58584,0.50141 -1.89283,1.11423 -0.67892,1.35531 -1.97089,1.44882 -2.56551,0.18571 z m -50.1503,-6.87298 c -0.68349,-0.6309 -0.97331,-2.01949 -0.66663,-3.19418 0.40377,-1.54648 0.0627,-2.30776 -1.33378,-2.97577 -1.13325,-0.54214 -1.87637,-0.60097 -1.87637,-0.1485 0,0.41201 -0.65454,0.74912 -1.45454,0.74912 -1.01755,0 -1.45451,-0.78587 -1.45451,-2.61582 0,-3.8206 -3.00861,-4.70471 -9.86784,-2.8998 -2.8393,0.74712 -5.57687,1.62523 -6.08357,1.95135 -0.50661,0.32613 -2.9066,0.60481 -5.33328,0.61929 -2.42661,0.0145 -5.50296,0.50404 -6.83631,1.08792 -3.97374,1.74015 -5.81811,1.41568 -5.81811,-1.02353 0,-1.17577 0.60258,-3.26497 1.33907,-4.64267 0.73644,-1.37769 1.65184,-4.81813 2.03422,-7.64541 0.38237,-2.82728 1.19795,-5.77559 1.81245,-6.5518 1.25466,-1.58486 9.38159,-4.76467 13.97693,-5.46872 1.65891,-0.25413 3.24852,-0.92599 3.53257,-1.49298 0.28385,-0.567 1.08768,-1.03089 1.78588,-1.03089 0.69819,0 1.96125,-0.58498 2.80671,-1.29995 0.84552,-0.71496 2.96894,-2.13562 4.71867,-3.15701 1.74989,-1.02139 3.99142,-2.44203 4.98127,-3.15702 2.20629,-1.59356 4.70882,-1.69225 4.70882,-0.1857 0,0.61283 0.43639,1.11424 0.96973,1.11424 0.53333,0 0.96965,-0.32954 0.96965,-0.73229 0,-0.40276 1.68118,-1.58453 3.73593,-2.62617 3.07965,-1.56126 4.42736,-1.80917 7.67327,-1.41157 2.71403,0.33245 4.08603,0.91763 4.41569,1.88334 0.28697,0.84141 -0.025,1.40103 -0.78035,1.40103 -0.69227,0 -1.54648,0.87847 -1.89824,1.95215 -0.47258,1.44239 -0.12022,2.32281 1.3494,3.37165 1.09396,0.78074 1.98901,1.74076 1.98901,2.13341 0,0.39263 0.54543,0.70332 1.21212,0.6904 1.48036,-0.0286 6.54537,-6.25411 6.54537,-8.04495 0,-1.55949 1.82089,-3.07396 3.6958,-3.07396 1.03881,0 1.21512,0.62633 0.73182,2.59989 -0.36447,1.48804 -0.24294,2.5999 0.28354,2.5999 0.50628,0 0.94523,1.58779 0.97537,3.52841 0.0368,2.37982 0.9618,4.85841 2.8408,7.61399 4.33334,6.35483 4.5765,7.90193 1.69651,10.79442 -1.35664,1.36253 -2.46661,2.81479 -2.46661,3.22725 0,1.80663 -4.13526,5.8565 -7.70078,7.54182 -2.13582,1.00954 -3.89507,2.26054 -3.90943,2.77999 -0.0156,0.51945 -1.22606,1.34858 -2.6927,1.8425 -1.46662,0.49394 -4.36848,1.82386 -6.44845,2.95538 -4.37613,2.38062 -12.04756,2.89057 -14.15938,0.94126 z m 57.72281,-1.82501 c -0.59692,-0.73989 1.42512,-3.74435 2.52002,-3.74435 0.34284,0 0.84193,0.64036 1.10911,1.42301 0.72573,2.12594 -2.25075,4.02982 -3.62913,2.32134 z M 265.55828,209.18304 c -4.83498,-0.54757 -6.36825,-1.24962 -5.68929,-2.605 0.29093,-0.58081 -0.16447,-1.81444 -1.01204,-2.74141 -0.84755,-0.92695 -1.54101,-2.26293 -1.54101,-2.96884 0,-0.70589 -0.60145,-1.55077 -1.33655,-1.87748 -1.53186,-0.68084 -3.52868,-7.06985 -2.84008,-9.08703 0.2534,-0.74235 -0.44861,-2.71524 -1.56007,-4.38416 -2.58497,-3.88155 -2.5657,-8.16193 0.0578,-12.83363 1.79997,-3.20525 1.9081,-3.94545 0.80662,-5.52207 -0.6996,-1.00137 -0.9789,-2.0452 -0.62067,-2.31963 0.35823,-0.27442 -0.0225,-1.28717 -0.8469,-2.25058 -0.82404,-0.96339 -1.26726,-2.03793 -0.98495,-2.38784 0.28231,-0.34993 -1.29826,-2.37913 -3.51239,-4.50937 l -4.02565,-3.87315 1.20856,-3.61237 c 1.37532,-4.11075 0.9127,-5.15477 -2.28406,-5.15477 -1.23656,0 -2.7915,-0.50141 -3.45543,-1.11424 -1.54162,-1.42297 -6.08998,-1.42884 -9.66538,-0.0122 -1.52968,0.60596 -4.45344,1.04224 -6.49723,0.96948 -2.04381,-0.0727 -4.81448,0.11672 -6.15706,0.42106 -3.50013,0.79339 -13.13126,-4.50986 -14.05758,-7.74063 -0.35959,-1.25417 -1.20485,-2.4423 -1.87838,-2.64029 -0.67351,-0.198 -1.75715,-1.59618 -2.40811,-3.10709 -0.95942,-2.22696 -0.91792,-3.62776 0.21909,-7.39799 0.99094,-3.28584 1.15372,-5.67135 0.55464,-8.12786 -0.74424,-3.05177 -0.56424,-3.80543 1.47178,-6.16228 1.27585,-1.4769 5.20558,-4.86358 8.73272,-7.52597 3.52714,-2.662391 6.413,-5.389413 6.413,-6.06004 0,-0.670632 1.30907,-2.361478 2.90906,-3.75743 1.59999,-1.395949 2.90906,-2.864062 2.90906,-3.262449 0,-0.398395 2.31219,-0.724356 5.1382,-0.724356 2.826,0 6.20779,-0.44308 7.51508,-0.984628 1.3073,-0.541552 5.75869,-1.109351 9.89198,-1.261788 8.15702,-0.300853 8.02928,-0.37192 7.65928,4.262664 -0.19266,2.413372 0.59127,3.134317 4.70425,4.326347 1.86664,0.540994 5.2808,1.541528 7.58699,2.223412 3.95189,1.168477 4.2475,1.16531 5.13905,-0.0551 1.08589,-1.486404 3.81372,-1.698396 5.47534,-0.425511 0.68985,0.528453 4.6398,0.89257 10.07266,0.928531 l 8.93777,0.0591 1.4638,-3.579831 c 1.78879,-4.374648 1.20749,-4.790527 -6.29242,-4.501881 -5.28996,0.203603 -5.39307,0.168005 -6.75646,-2.331638 -1.94503,-3.566042 -1.84211,-3.818712 2.43989,-5.989451 3.27957,-1.662571 4.55739,-1.883942 8.96962,-1.553942 2.82986,0.211668 6.56336,0.615895 8.29668,0.8983 4.37869,0.713415 4.05457,-0.661919 -0.72725,-3.086045 -4.0404,-2.048262 -4.66601,-3.097159 -2.7313,-4.57925 1.46394,-1.121442 0.58516,-1.824241 -1.51068,-1.20815 -0.88579,0.260403 -1.49369,1.020361 -1.35091,1.688845 0.39267,1.838514 -5.75236,2.16342 -6.22784,0.329287 -0.30531,-1.177851 -0.68321,-1.08744 -3.0837,0.737815 -2.01416,1.531503 -2.58582,2.537682 -2.16737,3.81484 0.67291,2.053848 -0.58621,3.003098 -5.23105,3.943681 -3.1784,0.643627 -3.37585,0.860129 -3.10951,3.409674 0.2421,2.317502 -0.0104,2.722419 -1.69695,2.722419 -1.08973,0 -1.98135,-0.460478 -1.98135,-1.023291 0,-0.562801 -0.58264,-1.393697 -1.29475,-1.846429 -0.71211,-0.452729 -1.87018,-2.158831 -2.57349,-3.791327 -0.70331,-1.632492 -2.02026,-3.14846 -2.92655,-3.368805 -0.90628,-0.220332 -2.80609,-1.396491 -4.22181,-2.613658 -2.48073,-2.132775 -5.46811,-2.959907 -5.46811,-1.513941 0,0.384469 2.59599,2.44951 5.76886,4.588975 3.17287,2.139476 5.54269,4.170266 5.26629,4.512877 -0.27642,0.342607 -0.90879,0.43061 -1.40526,0.195539 -0.49648,-0.235044 -0.90268,0.104242 -0.90268,0.754029 0,0.649764 -0.76364,1.400889 -1.69696,1.669162 -0.93332,0.268247 -2.17931,0.980639 -2.76884,1.583035 -1.10025,1.124243 -4.26141,0.726783 -4.26141,-0.535802 0,-0.381409 1.30908,-1.043053 2.90907,-1.470331 3.76921,-1.006541 3.66986,-1.858428 -0.44391,-3.806047 -1.84411,-0.873095 -4.48452,-2.617609 -5.86753,-3.876706 -2.24476,-2.043606 -2.77432,-2.198607 -4.93502,-1.444448 -1.33125,0.464643 -3.12692,0.844808 -3.99042,0.844808 -0.86349,0 -2.26112,0.485889 -3.10585,1.079761 -0.84474,0.593865 -2.50779,1.756242 -3.69568,2.583043 -1.1879,0.826814 -1.9173,1.987395 -1.6209,2.579077 1.20615,2.407843 -10.88268,5.155432 -15.0913,3.430003 -2.15597,-0.883897 -2.63722,-3.668682 -0.86817,-5.023847 0.60947,-0.46688 1.15493,-2.121525 1.21212,-3.676989 l 0.10395,-2.828115 6.06055,0.177267 6.06055,0.177236 v -3.284218 c 0,-2.661148 -0.37805,-3.376136 -1.99276,-3.768722 -2.49006,-0.605421 -1.95559,-2.135882 0.85661,-2.452877 1.15822,-0.130548 2.10584,-0.548391 2.10584,-0.928531 0,-0.38014 0.84696,-0.691162 1.88215,-0.691162 1.03518,0 2.15183,-0.334271 2.48145,-0.742826 0.86422,-1.071196 -1.95425,-0.913192 -5.8281,0.326733 -2.43183,0.778365 -3.52609,0.840861 -4.01929,0.229561 -0.37274,-0.462006 -0.1641,-0.971163 0.46366,-1.131456 0.62776,-0.160319 1.14137,-1.079547 1.14137,-2.042777 0,-0.963226 0.43636,-1.957915 0.9697,-2.210414 0.53333,-0.252496 0.9697,-0.981701 0.9697,-1.620449 0,-1.74687 -2.71222,0.188009 -3.09329,2.206721 -0.20222,1.07145 -1.33736,1.819409 -3.46869,2.285637 -3.75627,0.821676 -4.95275,0.196075 -3.36048,-1.757017 0.69449,-0.851906 0.79068,-1.590168 0.24109,-1.850376 -0.50296,-0.23813 -0.0197,-1.118266 1.07357,-1.955876 1.39482,-1.068495 2.69372,-1.387258 4.3529,-1.068252 2.0975,0.403278 2.30051,0.258261 1.79567,-1.282543 -0.37948,-1.158262 0.0969,-2.340464 1.42923,-3.547316 1.98163,-1.794906 2.01098,-1.797632 3.49683,-0.32445 0.82412,0.817111 1.26751,2.191809 0.98532,3.054886 -0.36582,1.118786 0.48136,2.353632 2.95135,4.3019 2.82717,2.229999 3.24849,2.93199 2.2905,3.816258 -1.91343,1.766148 0.50874,1.233363 3.25425,-0.715816 1.39403,-0.989675 3.42136,-2.015017 4.50521,-2.278539 1.20584,-0.293166 1.97063,-1.122749 1.97063,-2.137567 0,-0.912143 0.52361,-2.059555 1.16357,-2.549798 0.905,-0.693257 1.40581,-0.437368 2.25355,1.151379 1.04027,1.949582 1.40064,2.044432 7.90251,2.079876 6.77242,0.03692 6.81766,0.02394 7.68575,-2.228478 0.65041,-1.687481 1.42997,-2.250568 3.05503,-2.206637 1.7213,0.04653 2.18179,-0.347442 2.18179,-1.866625 0,-1.284451 -0.72645,-2.169766 -2.18179,-2.658878 -3.0124,-1.012413 -3.42673,-4.474678 -0.79256,-6.622641 1.11232,-0.907007 1.72752,-1.875008 1.36708,-2.151116 -1.20501,-0.923086 -3.29516,-0.51574 -3.93795,0.767454 -0.34976,0.698212 -1.75423,2.014188 -3.12105,2.924406 -2.16121,1.439212 -2.32715,1.853378 -1.27303,3.177409 1.60371,2.014343 1.52998,3.387118 -0.24241,4.513945 -0.80001,0.508605 -1.45454,1.552348 -1.45454,2.319432 0,0.767085 -0.65454,1.394699 -1.45454,1.394699 -0.79998,0 -1.45452,0.298521 -1.45452,0.663351 0,1.098738 -3.18524,1.681901 -3.95761,0.724564 -0.39531,-0.48998 -1.00239,-2.339799 -1.34906,-4.110706 -0.68812,-3.515227 -1.7729,-4.03125 -3.64556,-1.734168 -0.66614,0.817108 -1.97062,1.485651 -2.89881,1.485651 -3.76838,0 -3.35937,-8.416334 0.45405,-9.343503 1.1612,-0.28233 2.99371,-1.387554 4.07224,-2.456059 5.79856,-5.74467 10.5904,-8.982607 13.98124,-9.44738 1.93887,-0.265759 4.25956,-0.973756 5.15707,-1.573327 1.78036,-1.189362 7.51788,-0.680331 8.72428,0.774019 0.36258,0.437096 3.85347,1.648621 7.75751,2.692276 5.87861,1.571508 7.15457,2.2026 7.42592,3.67288 0.31397,1.701125 0.13696,1.758857 -4.23531,1.381338 l -4.56295,-0.393988 2.47257,1.894121 c 2.37572,1.819894 2.56883,1.845811 4.92847,0.661433 1.35074,-0.677976 3.12577,-1.232685 3.94453,-1.232685 0.91811,0 1.48864,-0.672245 1.48864,-1.754057 0,-1.467898 0.39336,-1.696452 2.4111,-1.400976 1.32612,0.194184 4.09135,-0.161925 6.14498,-0.791389 2.36366,-0.724489 5.2152,-0.992257 7.77062,-0.729693 2.67677,0.275051 4.03675,0.131588 4.03675,-0.425862 0,-0.512011 1.86982,-0.840631 4.78311,-0.840631 3.93146,0 4.8927,-0.264531 5.3986,-1.485654 0.81152,-1.958646 2.91788,-1.886016 4.7935,0.165295 1.03583,1.132894 1.50949,1.30013 1.50949,0.532971 0,-1.833293 7.95554,-1.748464 11.05275,0.117853 1.38762,0.836113 2.52286,1.20476 2.52286,0.819218 0,-0.385546 -1.52427,-1.496189 -3.38728,-2.468102 -1.86297,-0.971911 -3.39026,-2.033361 -3.39388,-2.35878 -0.003,-0.325416 1.29968,-1.161098 2.89629,-1.857064 1.59665,-0.695969 2.90569,-1.812434 2.9091,-2.481034 0.006,-1.178957 1.13175,-1.498686 8.97573,-2.549115 1.73334,-0.232114 4.03627,-0.75024 5.11777,-1.151385 1.22345,-0.45385 2.87178,-0.472724 4.36354,-0.04996 1.50349,0.426068 3.1946,0.401146 4.53547,-0.06685 1.50578,-0.525544 3.00841,-0.470087 5.08085,0.187537 2.49319,0.791106 2.85785,1.23254 2.38692,2.889582 -0.98765,3.475435 -1.27623,3.824244 -3.76286,4.548485 -1.34702,0.392316 -2.44907,1.064428 -2.44907,1.493586 0,0.465787 1.15052,0.324509 2.85454,-0.350514 1.9309,-0.764911 3.57817,-0.926659 5.09084,-0.499893 1.22999,0.347 3.802,0.482755 5.71563,0.301673 2.35062,-0.222442 3.97964,0.05403 5.02161,0.852227 1.6942,1.297852 6.52927,1.622673 6.52927,0.438641 0,-1.400463 4.69928,-0.743045 7.4742,1.045621 1.52602,0.983648 3.85036,1.74927 5.16523,1.701385 1.3149,-0.04788 3.57065,0.152633 5.0128,0.445616 2.00842,0.408011 3.06984,0.164477 4.53528,-1.040476 l 1.91325,-1.573156 6.57155,1.626361 c 3.89299,0.963448 8.56598,1.56483 11.46456,1.475403 6.75269,-0.208329 6.99968,-0.165611 9.12075,1.578451 1.03351,0.849789 2.68683,1.462846 3.67408,1.362354 0.98727,-0.100463 3.916,0.08336 6.50826,0.408654 3.12237,0.391754 4.93145,0.32093 5.35967,-0.209842 1.18286,-1.466159 16.76858,0.946847 23.61063,3.655445 0.92613,0.366615 2.67156,0.678416 3.87879,0.692892 3.87715,0.0465 6.82056,1.821815 7.17905,4.33003 0.34264,2.397664 -0.48308,2.813639 -3.35093,1.688101 -0.89823,-0.35254 -3.58444,-0.869749 -5.96933,-1.149348 l -4.33612,-0.508363 3.57353,2.077884 c 1.96543,1.14283 3.584,2.245015 3.59683,2.449289 0.0126,0.204265 -1.44335,1.098914 -3.236,1.988075 -2.2999,1.140763 -3.56255,1.384419 -4.28925,0.827722 -0.72675,-0.556699 -1.4968,-0.431267 -2.61602,0.426114 -0.87236,0.668279 -1.99134,1.215051 -2.48653,1.215051 -1.45467,0 -1.03105,2.236718 0.50939,2.689541 2.68524,0.789345 5.37797,5.414897 5.37797,9.238143 0,3.154534 -0.26824,3.671668 -1.90525,3.671668 -1.04791,0 -2.41645,-0.75211 -3.04113,-1.671357 -0.62475,-0.91925 -3.02577,-3.38319 -5.3356,-5.47542 -3.8701,-3.505541 -4.1278,-3.996096 -3.28357,-6.251058 1.18458,-3.164049 0.28292,-6.283969 -1.48998,-5.156714 -0.87231,0.554574 -1.44869,0.560679 -1.88493,0.01984 -1.23976,-1.53667 -3.2812,-0.735997 -3.9347,1.543213 l -0.66578,2.322114 -6.94367,-0.429748 c -7.77799,-0.48138 -8.26543,-0.346573 -10.79453,2.985431 -1.79685,2.367207 -1.79584,2.374283 0.55783,3.875128 1.29689,0.826976 3.01256,1.52673 3.81252,1.555016 2.15916,0.07633 6.15931,2.96079 8.55479,6.168779 1.63975,2.195919 2.11177,4.041286 2.11177,8.255817 v 5.427766 l -3.63627,-0.08474 c -3.5772,-0.08333 -3.64106,-0.03582 -3.92516,2.925014 -0.21889,2.277257 0.19455,3.344775 1.69695,4.386386 1.09219,0.757151 1.98577,1.965512 1.98577,2.685258 0,0.719744 0.54028,1.446589 1.20066,1.615218 0.9485,0.242195 0.95285,0.723327 0.0219,2.290382 -1.61645,2.717687 -2.78148,2.494268 -5.093,-0.976661 -1.08441,-1.628239 -3.03057,-3.491961 -4.32482,-4.141608 -1.29428,-0.649638 -2.13409,-1.618634 -1.86625,-2.153327 0.37503,-0.748665 -0.58591,-0.883831 -4.17968,-0.587934 -2.56668,0.211322 -4.81945,0.484667 -5.00623,0.607396 -0.91865,0.603805 1.20386,1.807652 3.18709,1.807652 2.96918,0 4.86606,1.756787 3.66787,3.396976 -0.67843,0.928606 -0.08,2.212295 2.34758,5.036036 1.79198,2.084358 3.25812,4.071954 3.25812,4.416864 0,0.34492 0.66622,1.13751 1.48058,1.76132 1.8539,1.42015 1.0974,5.33359 -1.83559,9.496 -1.65401,2.34739 -2.96184,3.14856 -6.5178,3.99279 -4.92649,1.16964 -8.24535,3.84154 -4.77164,3.84154 1.0712,0 1.9476,0.18912 1.9476,0.42026 0,1.19251 -2.18698,3.29388 -3.42803,3.29388 -1.46708,0 -1.5192,-0.0734 -1.88877,-2.65952 -0.12115,-0.84989 -0.66752,-2.15687 -1.21365,-2.90437 -0.94366,-1.29174 -1.04672,-1.28199 -2.07981,0.1967 -1.26424,1.80963 -0.23388,4.49491 2.35646,6.14055 0.93816,0.59604 2.27457,2.12613 2.96983,3.40021 1.48947,2.72957 0.73205,7.71166 -1.17243,7.71166 -0.71141,0 -1.76056,0.66854 -2.33144,1.48565 -1.22162,1.74857 -3.87876,1.98704 -3.87876,0.3481 0,-0.62566 -0.73028,-1.35223 -1.62287,-1.6146 -0.89258,-0.2624 -2.41984,-1.08758 -3.39392,-1.83377 -5.17141,-3.96156 -6.78792,1.95237 -1.73796,6.35836 3.18628,2.77996 6.67313,11.00027 4.86215,11.4627 -1.54251,0.39387 -1.2254,1.46134 0.92292,3.10704 1.06664,0.81712 1.93936,1.15139 1.93936,0.74283 0,-1.52184 2.63893,-0.67367 3.75807,1.20787 1.06519,1.791 0.99856,1.91832 -0.81408,1.5552 -1.68667,-0.33788 -1.97428,-0.044 -1.97428,2.01726 0,2.15738 0.39687,2.50384 3.74885,3.27318 2.06187,0.47323 4.84477,0.8604 6.18421,0.8604 1.33949,0 2.95693,0.48134 3.5943,1.06965 0.63734,0.58831 2.10449,1.17329 3.26031,1.29995 1.15576,0.12664 2.24697,0.81527 2.42487,1.53025 0.37338,1.5006 -2.60202,1.74621 -7.18914,0.59344 -1.54625,-0.38857 -4.63981,-1.06464 -6.87459,-1.50233 -2.2348,-0.43772 -5.07114,-1.45362 -6.303,-2.25757 -1.23186,-0.80395 -3.43971,-2.15778 -4.90639,-3.00853 -1.69963,-0.98592 -2.66662,-2.24258 -2.66662,-3.46556 0,-1.05531 -1.0909,-3.01437 -2.42421,-4.35348 -1.33331,-1.33911 -2.42421,-2.74174 -2.42421,-3.11694 0,-0.37523 -1.30909,-1.73159 -2.90908,-3.01412 -3.38209,-2.71106 -3.69326,-4.28312 -0.97839,-4.94319 2.32694,-0.56575 3.88747,0.0609 3.88747,1.56114 0,1.32887 4.28069,4.75076 5.94306,4.75076 0.66401,0 0.25793,-0.7541 -0.92558,-1.71922 -1.15963,-0.94559 -2.10845,-2.33469 -2.10845,-3.0869 0,-0.75221 -1.09087,-2.46329 -2.42421,-3.8024 -1.77607,-1.78379 -2.42421,-3.35081 -2.42421,-5.86105 0,-4.0907 -3.90096,-10.47237 -5.60402,-9.16774 -1.67063,1.27977 -4.09288,0.0953 -4.09288,-2.00132 0,-2.0429 -7.21052,-8.52299 -9.4897,-8.52841 -0.68607,-9.9e-4 -4.43657,2.49621 -8.33443,5.55076 -7.03713,5.5146 -7.0883,5.58377 -7.26905,9.82037 -0.13677,3.20872 -0.69694,4.68655 -2.25874,5.96009 -1.14224,0.93139 -2.44114,1.69344 -2.8865,1.69344 -0.74276,0 -3.02738,-3.47495 -8.43733,-12.83364 -1.12813,-1.95156 -2.05779,-4.29145 -2.06601,-5.19977 -0.0187,-2.24566 -1.51161,-3.87951 -3.54374,-3.88219 -1.01687,-0.001 -2.65323,-1.39891 -4.13128,-3.52844 -2.44705,-3.52551 -2.44854,-3.52622 -7.80297,-3.63198 -2.94547,-0.0581 -6.77174,-0.19613 -8.50269,-0.30664 -3.03413,-0.19365 -3.09514,-0.14388 -1.69697,1.3853 2.00871,2.19691 1.8284,3.33553 -0.97393,6.15002 -1.33331,1.3391 -2.42422,2.8087 -2.42422,3.26577 0,0.45707 -1.30907,1.1806 -2.90909,1.60788 -1.59997,0.42727 -2.90904,1.23697 -2.90904,1.79934 0,1.10838 -4.78998,3.28914 -7.22452,3.28914 -0.82647,0 -1.50269,0.26518 -1.50269,0.58936 0,0.32414 -1.85451,0.98076 -4.12119,1.45914 -3.7025,0.78143 -4.2841,0.72206 -5.72576,-0.58432 -0.88256,-0.79975 -2.37877,-3.33945 -3.32492,-5.64378 -0.94616,-2.30432 -2.73313,-4.96557 -3.97108,-5.91389 -1.23793,-0.94831 -2.25079,-2.52628 -2.25079,-3.50657 0,-0.9803 -1.1033,-2.75042 -2.45178,-3.93361 -3.83903,-3.36843 -4.27223,-3.83111 -5.46557,-5.83745 -0.61663,-1.03674 -1.75582,-1.88499 -2.53155,-1.88499 -1.15061,0 -1.08717,0.37629 0.34435,2.04278 0.96511,1.12352 2.39805,3.04558 3.18431,4.27125 0.78624,1.22566 1.9607,2.47448 2.60988,2.77515 0.64919,0.30066 1.45193,1.63775 1.78387,2.9713 0.86292,3.46679 4.29815,8.48112 9.1492,13.3549 l 4.19845,4.21815 5.49838,-0.20884 c 3.02414,-0.11486 6.2621,-0.46701 7.19536,-0.78252 2.7479,-0.92897 2.13759,2.80291 -1.34452,8.22132 -2.75668,4.28955 -12.49004,12.72105 -16.83598,14.58418 -0.80061,0.34321 -1.45564,1.25208 -1.45564,2.01971 0,0.76763 -0.59396,1.85067 -1.3199,2.40678 -1.03358,0.79178 -1.12314,1.97151 -0.41281,5.43856 0.49892,2.43509 0.97301,6.70909 1.05357,9.49778 0.16052,5.55821 0.12699,5.59801 -8.29048,9.83256 -3.39298,1.7069 -3.63634,2.07612 -3.63634,5.51702 0,3.07188 -0.38825,3.88257 -2.32503,4.85471 -1.41848,0.71198 -2.58238,2.21786 -2.98506,3.86214 -0.80665,3.29385 -10.50033,11.03658 -14.7062,11.74644 -1.52425,0.25725 -3.20774,0.54222 -3.74107,0.63324 -0.53333,0.0911 -2.71514,-0.0321 -4.84844,-0.27383 z m 70.83311,-101.00137 c -1.03853,-0.8791 -3.26908,-1.53495 -5.68427,-1.67136 -3.4274,-0.19355 -4.43011,-0.68503 -7.27823,-3.56723 -3.452,-3.49327 -5.02258,-4.426148 -5.02258,-2.983247 0,1.248637 6.09353,6.668287 7.51509,6.683987 0.66665,0.007 1.21209,0.55056 1.21209,1.20711 0,0.65654 0.54546,1.03669 1.21213,0.84477 4.22229,-1.21556 5.38671,-1.25091 6.52725,-0.19819 0.67391,0.62205 1.67584,1.13102 2.22653,1.13102 0.5507,0 0.23232,-0.65109 -0.70801,-1.44686 z M 278.16423,46.488278 c 0.34824,-0.431628 -0.54183,-0.720955 -2.12456,-0.690618 -2.39593,0.04593 -2.49039,0.129069 -0.7845,0.690618 1.06665,0.351122 2.02271,0.661902 2.12456,0.690617 0.10188,0.02867 0.45488,-0.282046 0.7845,-0.690617 z m 59.63585,-12.212796 c 0,-1.534455 2.00985,-2.272717 2.96479,-1.089054 0.44466,0.551201 1.14685,0.742988 1.56045,0.426192 1.12916,-0.864992 -1.83675,-2.010033 -3.919,-1.513006 -1.02863,0.245504 -2.18008,-0.0038 -2.65183,-0.574081 -0.59068,-0.714142 -0.83808,-0.448569 -0.84861,0.910946 -0.006,1.055434 0.27574,2.141813 0.63159,2.414184 1.10023,0.84283 2.26261,0.547342 2.26261,-0.575181 z M 309.92153,194.5616 c -1.46041,-0.45143 -1.6689,-7.37518 -0.2424,-8.05054 0.53332,-0.2525 0.96968,-1.58544 0.96968,-2.96209 0,-2.35446 2.00128,-4.8376 3.89883,-4.8376 1.48821,0 6.7586,-4.7756 6.76325,-6.12831 0.006,-1.92946 1.3106,-1.5789 3.18932,0.85744 2.00199,2.59623 2.1181,4.24794 0.35483,5.04826 -0.71984,0.32672 -2.71812,3.76961 -4.44067,7.65088 -3.68692,8.3076 -5.68211,9.90899 -10.49284,8.42196 z m 201.87659,-21.11394 c -4.26408,-3.43219 -6.27201,-4.0939 -6.89402,-2.27188 -0.36862,1.07984 -1.28221,1.47261 -3.3221,1.42819 -1.54749,-0.0337 -2.81364,-0.47283 -2.81364,-0.97586 0,-0.503 -0.87271,-1.08938 -1.93939,-1.30306 -1.41634,-0.28375 -1.93935,-1.01322 -1.93935,-2.7051 0,-1.98328 -0.42147,-2.38116 -2.92921,-2.76537 -1.61111,-0.24686 -3.16417,-0.73989 -3.45116,-1.09567 -0.2876,-0.35579 -1.41619,-0.64688 -2.50915,-0.64688 -1.61252,0 -1.87735,-0.33564 -1.4042,-1.77963 0.39471,-1.20482 0.11553,-1.91707 -0.86461,-2.20517 -2.15385,-0.63313 -1.75033,-2.46673 0.64848,-2.94729 2.5633,-0.51348 5.66139,0.65204 5.66139,2.12985 0,0.59845 0.87271,1.08809 1.93939,1.08809 1.06666,0 1.93936,-0.33427 1.93936,-0.74282 0,-1.36462 3.87849,-0.76402 7.75431,1.20077 2.10863,1.06899 4.4678,1.75727 5.24257,1.52952 1.88243,-0.55335 8.54469,5.64611 7.75711,7.21831 -0.3185,0.63585 0.33604,2.29041 1.45454,3.6768 2.48333,3.07803 2.51375,3.45961 0.27543,3.45961 -0.96691,0 -3.03961,-1.03159 -4.60605,-2.29241 z m -46.96888,-0.19236 c 0,-1.59039 3.31434,-3.45785 6.1369,-3.45785 1.42469,0 2.59031,0.33428 2.59031,0.74283 0,0.40855 -0.59564,0.74283 -1.32376,0.74283 -0.72803,0 -2.43323,0.66855 -3.78928,1.48565 -2.89819,1.74638 -3.61417,1.84276 -3.61417,0.48654 z m -11.82837,-3.26378 c -0.79965,-0.73813 0.36454,-0.93689 5.48751,-0.93689 4.77133,0 6.3948,0.24723 6.09789,0.92853 -0.5434,1.24706 -10.23583,1.25404 -11.5854,0.008 z m 63.22187,-2.46044 c 0,-0.4294 1.49742,-1.26001 3.32761,-1.84581 3.91768,-1.25395 5.06248,-2.3858 3.56966,-3.52935 -1.51009,-1.15684 -1.34355,-2.01519 0.39108,-2.01519 1.66875,0 5.07269,4.89219 3.98417,5.72605 -0.39126,0.29972 -1.11735,0.0531 -1.61351,-0.54778 -0.73332,-0.88828 -0.90488,-0.89957 -0.91696,-0.0604 -0.006,0.56778 -0.77848,1.4764 -1.71181,2.01914 -2.02767,1.17915 -7.03024,1.35941 -7.03024,0.25331 z m -58.25687,-4.20001 c -1.26075,-2.54011 -0.35727,-6.73945 1.95272,-9.07655 1.36401,-1.38006 2.83937,-1.84849 6.31598,-2.00538 3.825,-0.1726 4.48729,-0.007 4.22405,1.05784 -0.21453,0.86671 -1.44973,1.33483 -3.94042,1.4931 -3.77382,0.23977 -5.14805,1.62651 -1.61185,1.62651 1.76667,0 1.93292,0.29896 1.34252,2.41419 -0.79484,2.84752 -2.11569,4.27126 -3.96259,4.27126 -0.73464,0 -1.33578,0.5014 -1.33578,1.11423 0,1.83463 -1.91484,1.2603 -2.98463,-0.8952 z m -14.05359,-2.37139 c -2.4614,-1.56978 -6.20495,-7.44143 -5.5623,-8.72436 0.27761,-0.55469 1.12839,-1.00851 1.89011,-1.00851 2.03723,0 6.17983,-2.20616 10.10022,-5.37884 3.983,-3.22338 4.17648,-3.26384 6.62755,-1.38619 1.55518,1.19132 1.63234,1.56167 0.50553,2.42489 -1.06183,0.81342 -1.10917,1.5701 -0.23482,3.75298 0.91038,2.27245 0.82504,3.05021 -0.50551,4.60583 -0.88052,1.02942 -1.60092,2.34391 -1.60092,2.92109 0,2.71485 -8.15835,4.74577 -11.22015,2.79311 z m 31.68049,-4.01311 c -1.26558,-0.96951 -1.3715,-3.45827 -0.20703,-4.86591 0.67528,-0.81632 1.2145,-0.75096 2.89424,0.3508 2.53318,1.66155 2.55971,2.12997 0.22202,3.92085 -1.33994,1.02646 -2.13334,1.18852 -2.90911,0.59426 z m -6.3277,-12.82739 c -0.95805,-0.73394 -2.27251,-0.98225 -3.5523,-0.6711 -1.61885,0.3936 -1.96208,0.21532 -1.68998,-0.87775 0.18767,-0.75443 1.28713,-1.47532 2.44289,-1.60198 1.15582,-0.12664 2.62297,-0.71164 3.26037,-1.29995 1.62746,-1.5022 2.40007,-1.34747 4.28688,0.85855 1.57582,1.84229 1.56098,1.99121 -0.3327,3.34272 -2.39626,1.71017 -2.50068,1.71607 -4.41516,0.2495 z m -87.65064,-1.087 c -0.9211,-1.90753 -0.32542,-5.91908 0.879,-5.91908 1.50914,0 3.94768,3.59042 3.62346,5.33496 -0.42431,2.28292 -3.48998,2.68064 -4.50246,0.58412 z m 82.72999,-9.63321 c -0.96533,-0.81712 -2.20482,-1.48566 -2.75446,-1.48566 -0.54962,0 -1.97468,-0.70196 -3.1669,-1.55993 -1.74705,-1.25731 -2.05931,-2.08594 -1.60949,-4.27125 0.51246,-2.48972 1.65042,-3.78523 3.35027,-3.81419 0.36726,-0.006 0.96235,1.4928 1.32223,3.33124 0.51327,2.62218 1.20528,3.54392 3.21087,4.27674 1.67437,0.6118 2.66241,1.63711 2.86338,2.97142 0.3628,2.40895 -0.78844,2.60642 -3.2159,0.55163 z M 108.22634,117.27345 c -1.67761,-0.47121 -1.5281,-2.44515 0.18517,-2.44515 1.76379,0 2.97123,1.42563 1.86364,2.20035 -0.46021,0.32189 -1.38217,0.43205 -2.04883,0.24478 z m 346.33692,-1.32518 c -1.76168,-2.05967 -1.25344,-4.09127 1.02354,-4.09127 1.08598,0 1.48499,0.7983 1.48499,2.9713 0,3.4675 -0.36226,3.62923 -2.50853,1.11997 z m -367.904388,0.38525 c -1.093336,-0.52952 -1.173136,-0.90987 -0.326911,-1.55812 1.327435,-1.01689 3.22787,-0.30388 3.22787,1.21099 0,1.23584 -0.854766,1.33811 -2.900959,0.34713 z m 7.3019,-0.7161 c -0.341622,-0.42343 0.164783,-1.38878 1.125296,-2.14522 1.332781,-1.04959 2.735206,-1.29638 5.921032,-1.04194 3.60474,0.28791 4.13421,0.55039 3.87875,1.92285 -0.25212,1.35436 -1.03594,1.62233 -5.299909,1.81181 -2.752226,0.12229 -5.28355,-0.12409 -5.625169,-0.5475 z m -7.499515,-5.02895 c -1.348507,-2.1441 -5.136511,-3.32759 -7.620246,-2.38081 -0.828728,0.31589 -2.084624,0.30082 -2.790879,-0.0335 -2.322459,-1.09955 -0.03173,-2.2597 4.461846,-2.2597 3.311716,0 5.596859,0.58749 9.154817,2.35358 5.647163,2.80316 6.141389,4.33187 1.40048,4.33187 -2.674154,0 -3.593489,-0.40146 -4.606018,-2.01136 z m 379.337733,-9.52576 c 0,-0.62567 -0.66572,-1.333243 -1.4793,-1.572409 -2.13387,-0.627268 0.059,-2.440987 2.38743,-1.974561 2.55634,0.512097 3.32526,4.68452 0.86329,4.68452 -0.97432,0 -1.77142,-0.5119 -1.77142,-1.13755 z m 6.48542,-4.100294 c -0.97122,-0.868873 -2.8449,-1.447595 -4.6869,-1.447595 -3.00736,0 -3.03372,-0.02993 -1.3137,-1.485654 0.96528,-0.817108 2.47294,-1.485654 3.35031,-1.485654 0.87724,0 2.11872,-0.401127 2.75874,-0.891391 1.40695,-1.077779 1.55237,-4.308391 0.19391,-4.308391 -0.53334,0 -0.9836,-0.752114 -1.00056,-1.671361 -0.0156,-0.919247 -0.67149,-2.320223 -1.45457,-3.113281 -1.53641,-1.556086 -1.96895,-6.357752 -0.57269,-6.357752 0.46803,0 1.39415,0.501404 2.05809,1.114233 0.66394,0.61283 2.02647,1.114241 3.02782,1.114241 1.17415,0 1.82064,0.527511 1.82064,1.485654 0,1.089482 -0.64649,1.485654 -2.42422,1.485654 -1.50844,0 -2.42424,0.420936 -2.42424,1.11424 0,0.693301 0.9158,1.114238 2.42424,1.114238 1.93305,0 2.42422,0.37261 2.42422,1.839113 0,1.011516 0.87106,2.933573 1.93577,4.271252 2.60991,3.279199 2.46708,4.902968 -0.48122,5.469822 -1.33334,0.256371 -2.42423,0.911532 -2.42423,1.45596 0,1.676596 -1.51287,1.816356 -3.21144,0.296695 z m -183.2321,-5.611072 c -1.05616,-0.809062 0.22014,-1.779135 2.34076,-1.779135 1.13915,0 1.79358,0.389678 1.55937,0.928533 -0.46105,1.060755 -2.92446,1.598016 -3.90013,0.850602 z m -15.25167,-2.047537 c 0,-0.678098 0.79862,-0.894287 2.42422,-0.656232 1.33332,0.195224 2.42422,0.6503 2.42422,1.011232 0,0.360923 -1.0909,0.656228 -2.42422,0.656228 -1.39865,0 -2.42422,-0.4278 -2.42422,-1.011228 z m -27.79531,-8.324034 c -0.80821,-1.613389 1.24355,-3.130649 2.71217,-2.005632 1.24123,0.950847 0.47228,3.169805 -1.09844,3.169805 -0.56681,0 -1.293,-0.523879 -1.61373,-1.164173 z m -0.32567,-4.468926 c 0,-0.646885 0.51819,-1.043825 1.15152,-0.882105 1.79801,0.459118 2.09623,2.058246 0.38383,2.058246 -0.84442,0 -1.53535,-0.529266 -1.53535,-1.176141 z m 220.39656,-3.466522 c -3.36426,-2.696322 -10.16313,-11.059536 -9.44074,-11.612928 1.33297,-1.0211 14.01194,11.012514 14.01194,13.298708 0,1.321489 -1.51696,0.762065 -4.5712,-1.68578 z M 170.35542,41.891122 c -4.85401,-1.797697 -4.96602,-8.321015 -0.20947,-12.199598 1.77767,-1.449536 1.91816,-1.918542 0.86576,-2.889941 -0.99201,-0.915659 -1.01959,-1.764745 -0.13112,-4.036413 1.82309,-4.661306 -1.24399,-8.72772 -5.90667,-7.831246 -2.6533,0.51014 -4.14038,-0.500935 -5.11589,-3.478313 -0.51828,-1.5818986 -0.24956,-2.0647065 1.36792,-2.4579767 1.10707,-0.2691612 2.41795,-0.2976083 2.91305,-0.063195 0.4951,0.2344134 1.64313,-0.1429289 2.55115,-0.8385266 4.4294,-3.3931259 18.86885,-7.0399767 18.86885,-4.7655487 0,0.3678567 1.41816,0.5914836 3.15149,0.4969496 1.94683,-0.106165 3.60302,0.2770368 4.33276,1.0025277 1.06291,1.0567475 1.18436,1.0441684 1.21212,-0.1255392 0.0169,-0.7149721 0.63549,-1.2999472 1.37451,-1.2999472 0.73904,0 2.59357,-0.4993501 4.12117,-1.1096631 3.55331,-1.41961736 11.89622,-1.40652788 14.36289,0.022367 1.03868,0.6017537 2.70565,0.8954242 3.70438,0.6525995 1.28875,-0.3133284 1.96391,-0.00787 2.32586,1.0524694 0.41858,1.2261608 1.07958,1.4231583 3.68743,1.0989708 4.56958,-0.5680517 5.02586,0.8946492 0.77704,2.4909414 -4.04056,1.5180546 -5.1762,2.9507961 -7.72394,9.7446391 l -1.75021,4.667165 -3.87876,-0.472358 c -3.17117,-0.386188 -3.65764,-0.295781 -2.66665,0.495481 2.11265,1.686904 1.48214,3.112167 -1.15267,2.605584 -1.30065,-0.25007 -2.63549,-0.119176 -2.9663,0.290899 -0.34429,0.426728 0.49004,0.745552 1.95104,0.745552 1.89799,0 2.46969,0.329602 2.22943,1.285351 -0.22097,0.878853 -1.85343,1.526478 -5.16198,2.047808 -2.66134,0.419349 -6.36608,1.511052 -8.23273,2.426 -1.86666,0.914949 -3.92769,1.664795 -4.58008,1.666323 -2.20297,0.0051 -9.96525,3.262861 -9.96525,4.182262 0,0.863282 -6.65802,5.53402 -7.73603,5.426985 -0.27847,-0.02772 -1.45707,-0.402387 -2.61909,-0.832748 z M 218.52839,5.6328263 c 0.8,-0.3960424 1.01817,-0.7200754 0.48485,-0.7200754 -0.53332,0 -1.62423,0.324033 -2.42421,0.7200754 -0.8,0.3960425 -1.01818,0.7200788 -0.48485,0.7200788 0.53332,0 1.62422,-0.3240363 2.42421,-0.7200788 z M 141.43817,36.831535 c -0.39331,-0.949282 -1.46717,-1.485655 -2.97442,-1.485655 -3.20704,0 -3.0114,-1.840784 0.3078,-2.896031 2.09648,-0.666524 2.71835,-1.40051 2.90848,-3.432837 0.199,-2.127004 -0.0916,-2.585048 -1.63973,-2.585048 -1.03485,0 -2.1305,-0.308571 -2.43476,-0.685674 -0.30427,-0.377122 -1.85226,-0.904248 -3.44004,-1.17139 -4.13519,-0.695758 -4.46267,-1.680288 -1.37904,-4.145907 2.97283,-2.377011 5.85518,-2.946434 4.86019,-0.960157 -0.55816,1.11425 -0.41921,1.11465 1.79122,0.0051 2.22571,-1.117157 2.47026,-1.110608 3.43457,0.09199 0.78133,0.97438 0.97227,1.013624 0.77168,0.158586 -0.14664,-0.624905 0.16982,-1.293451 0.70312,-1.485654 0.53333,-0.1922 1.11448,0.433893 1.29143,1.391321 0.18138,0.981204 1.5538,2.277711 3.14536,2.971305 1.95605,0.852445 2.8255,1.812526 2.82974,3.124734 0.003,1.041814 0.39345,2.211764 0.86684,2.599891 1.57261,1.289387 2.25861,4.048402 1.00657,4.048402 -0.64486,0 -2.52791,1.086388 -4.18457,2.414187 -1.65666,1.327805 -3.34025,2.330616 -3.74132,2.228478 -0.40106,-0.102165 -0.72921,0.148536 -0.72921,0.557089 0,1.367904 -2.77064,0.761488 -3.3939,-0.742828 z m 8.24235,-3.714132 c 0,-0.408553 -0.43637,-0.742828 -0.96969,-0.742828 -0.53333,0 -0.96969,0.334275 -0.96969,0.742828 0,0.408555 0.43636,0.742826 0.96969,0.742826 0.53332,0 0.96969,-0.334271 0.96969,-0.742826 z m 55.70789,3.899838 c -1.60694,-2.817054 0.48546,-5.0019 3.92794,-4.101489 1.06666,0.27899 3.46663,0.52207 5.3333,0.540163 2.71596,0.02646 3.3939,0.325283 3.3939,1.496616 0,3.005259 -11.08681,4.814095 -12.65514,2.06471 z m 101.38164,-11.3281 c 0,-2.682177 1.97625,-2.943059 4.96289,-0.655148 1.65804,1.270148 1.79821,1.697385 0.72724,2.217102 -0.72955,0.354077 -2.30834,0.648891 -3.50833,0.655148 -1.78106,0.0092 -2.1818,-0.397936 -2.1818,-2.217102 z M 85.535627,22.717833 c -0.08004,-0.408555 -0.189108,-1.052041 -0.242413,-1.429973 -0.05331,-0.377931 1.592622,-1.565485 3.657673,-2.639008 2.819252,-1.465596 4.449899,-1.834883 6.545402,-1.482311 1.534906,0.258261 2.790754,0.66996 2.790754,0.914905 0,0.244936 -1.582103,1.555474 -3.515791,2.912284 -3.427843,2.405219 -8.902135,3.427159 -9.23561,1.724103 z m 322.324453,0.278423 c -3.01182,-0.999456 -0.52111,-3.249737 3.5969,-3.249737 1.75628,0 4.5801,1.969016 3.74323,2.610108 -0.78153,0.598707 -6.07376,1.059876 -7.34013,0.639629 z M 308.00945,21.88448 c -1.23686,-0.94749 -0.58603,-2.880788 0.96979,-2.880788 0.56759,0 1.72091,-0.460517 2.56288,-1.023371 1.88133,-1.257632 10.74295,-2.343903 10.74295,-1.316888 0,0.397141 -2.07273,1.480131 -4.60606,2.406642 -2.53329,0.926511 -4.95494,2.126283 -5.38146,2.666158 -0.9487,1.200917 -2.82908,1.265926 -4.2881,0.148253 z M 116.43409,21.007768 c -0.60619,-1.21012 3.74274,-4.515781 5.09727,-3.874488 1.54454,0.731249 1.18038,2.714748 -0.69907,3.80767 -2.17608,1.265414 -3.78554,1.289866 -4.3982,0.06682 z m 8.43902,-0.03953 c -0.72011,-1.437546 1.13112,-3.450188 3.17349,-3.450188 0.95988,0 1.2073,-0.467897 0.78561,-1.485654 -0.33855,-0.817108 -0.17551,-1.48565 0.36228,-1.48565 2.8341,0 1.88267,3.071827 -1.91983,6.198451 -1.61217,1.325603 -1.8387,1.34664 -2.40155,0.223041 z m 290.10432,-1.147961 c -1.16684,-0.987712 -1.3383,-1.568 -0.57064,-1.931449 1.31303,-0.621641 1.50058,-0.489216 2.36777,1.671997 0.81908,2.041262 0.38231,2.104315 -1.79713,0.259458 z M 107.98391,16.222504 c 0,-0.675741 -0.55435,-0.920043 -1.45453,-0.641 -0.8,0.247991 -2.11401,0.655243 -2.92007,0.905008 -2.84592,0.881862 -0.37099,-1.870264 2.75681,-3.065564 2.7997,-1.06992 3.13778,-1.061369 4.25357,0.107582 1.13335,1.18734 1.32853,1.189171 3.0032,0.02804 0.98509,-0.682924 2.08291,-1.018103 2.43964,-0.744844 1.59309,1.220374 0.32262,2.383806 -3.71502,3.40207 -3.83397,0.966898 -4.3636,0.967941 -4.3636,0.0085 z m 28.12096,0.800396 c -3.61413,-0.802097 -6.94819,-7.4471268 -4.12117,-8.2138392 0.75758,-0.2054623 1.2121,0.3567583 1.2121,1.4992752 0,1.005407 0.61226,2.217259 1.36057,2.693002 1.94829,1.238655 7.36665,2.337197 7.36665,1.493548 0,-0.380036 -0.42268,-0.690973 -0.93927,-0.690973 -0.51658,0 -0.69866,-0.4803 -0.40459,-1.067336 0.29406,-0.587032 1.15309,-0.885541 1.90894,-0.663351 0.93267,0.27417 1.37429,-0.128186 1.37429,-1.2521 0,-1.3815463 -0.23911,-1.5040865 -1.44219,-0.739195 -0.7932,0.504287 -2.11755,0.718358 -2.94297,0.475714 -1.34167,-0.394399 -1.32864,-0.6985374 0.12295,-2.8687031 2.55424,-3.8186174 5.8003,-4.9135433 4.99458,-1.6847052 -0.31077,1.2452833 -0.0282,1.8570673 0.85664,1.8570673 0.72603,0 1.32007,-0.3342746 1.32007,-0.7428269 0,-0.4085554 0.93156,-0.7428269 2.07015,-0.7428269 1.95777,0 1.93146,-0.083577 -0.48485,-1.539568 -1.40524,-0.8467615 -2.55499,-2.0167119 -2.55499,-2.5998913 0,-0.8747046 2.73684,-1.0603262 15.63374,-1.0603262 13.78672,0 15.49113,0.1316509 14.4266,1.1142404 -0.66393,0.6128301 -2.22294,1.1142404 -3.46446,1.1142404 -1.24152,0 -2.60625,0.4561187 -3.03276,1.0136012 -0.8613,1.1258146 -7.07842,3.7608314 -7.07842,3.0000636 0,-0.2647823 -0.54545,-0.1523483 -1.21211,0.2499129 -0.66666,0.4022454 -2.39688,0.9480277 -3.84493,1.2128446 -1.44807,0.2648138 -4.60768,1.5024822 -7.02138,2.7503582 -2.41369,1.247879 -4.79873,2.074662 -5.30009,1.837299 -0.50136,-0.237375 -1.16701,-0.114954 -1.47922,0.27206 -0.31221,0.386988 -0.10299,0.923607 0.46493,1.192487 0.71805,0.339958 0.6867,0.808139 -0.10292,1.536982 -1.0821,0.998817 -4.55203,1.248462 -7.68587,0.552962 z M 122.8845,15.670138 c -0.4208,-0.840023 -0.0815,-1.553148 0.94946,-1.995091 2.04103,-0.874991 2.03184,-1.879895 -0.0317,-3.452619 -1.53405,-1.1692383 -1.49947,-1.262109 0.55536,-1.4913369 3.25922,-0.3635788 4.95934,0.376101 4.95934,2.1576779 0,1.136251 -0.43212,1.461415 -1.51793,1.142228 -1.13253,-0.332921 -1.37526,-0.10185 -0.95598,0.910132 0.34596,0.835023 -0.18096,1.871382 -1.3709,2.696331 -1.83759,1.273926 -1.96515,1.275539 -2.58774,0.03267 z M 358.16354,15.35032 c 0,-1.693097 1.33046,-3.032057 3.01283,-3.032057 2.14387,0 2.26783,0.615838 0.48576,2.414183 -1.36876,1.381248 -3.49859,1.757392 -3.49859,0.617874 z M 97.511275,14.398175 c -2.201811,-1.686693 -1.391638,-3.593572 1.503021,-3.537604 1.466664,0.02835 3.910024,-0.17878 5.429704,-0.460328 2.3449,-0.4344255 2.71078,-0.303908 2.41756,0.862428 -0.20144,0.801322 -1.6567,1.662391 -3.49032,2.065242 -1.72966,0.380004 -3.14483,0.97683 -3.14483,1.326284 0,0.91116 -1.358746,0.78304 -2.715135,-0.256022 z m 160.774355,0.148568 c 0,-0.408556 -0.6288,-0.742827 -1.39731,-0.742827 -4.03933,0 -1.77834,-3.9519438 2.44872,-4.280069 1.52963,-0.1187347 3.19376,0.3877099 4.27146,1.299946 1.70392,1.442326 1.70428,1.546307 0.0104,2.980123 -1.82684,1.546382 -5.33328,2.034763 -5.33328,0.742827 z m 8.7272,-0.394728 c 0,-0.600009 0.65454,-1.090926 1.45452,-1.090926 0.79999,0 1.45453,0.29849 1.45453,0.663351 0,0.364842 -0.65454,0.855759 -1.45453,1.090926 -0.88602,0.260466 -1.45452,0.0012 -1.45452,-0.663351 z m 85.52655,0.246164 c -0.64002,-0.490266 -1.16369,-1.285015 -1.16369,-1.766113 0,-0.481094 -0.65451,-1.290849 -1.4545,-1.799454 -2.02093,-1.2848511 -1.81567,-2.228481 0.48482,-2.228481 1.29294,0 1.93938,0.4952201 1.93938,1.485654 0,0.962446 0.6465,1.485653 1.83563,1.485653 2.21715,0 3.28004,1.726633 1.77345,2.880788 -1.3804,1.05743 -1.97211,1.047375 -3.41509,-0.05806 z m -87.16945,-3.882528 c -2.40759,-1.5951517 -2.52457,-1.8610176 -1.01646,-2.3100985 1.93438,-0.5760125 8.4936,0.1922625 8.44664,0.9893596 -0.0565,0.9585469 -2.59206,3.1233539 -3.65833,3.1233539 -0.57812,0 -2.27546,-0.81118 -3.77185,-1.802615 z m -150.59821,-0.05447 c 0,-0.6128326 0.54546,-1.1188046 1.21212,-1.1243838 0.66666,-0.00567 2.19393,-0.2116998 3.39391,-0.4580466 1.64831,-0.3383888 2.18181,-0.1330999 2.18181,0.839604 0,0.9215844 -0.55093,1.1771514 -1.93842,0.8992014 -1.06613,-0.213559 -2.18278,-0.08541 -2.48145,0.284786 -0.85892,1.064621 -2.36797,0.783488 -2.36797,-0.441151 z"
			id="world" />
	</g>
	<g id="ontext">
		<text x="0" y="12" id="bases">
			<tspan id="else">HQIMAY</tspan><tspan id="neon">DATA BREACH</tspan><tspan id="texts">Q9G5PRAY</tspan><tspan id="else">G5W5</tspan><tspan id="texts">TJQH</tspan><tspan id="else">Z67OY</tspan>RKQPUOXV<tspan id="else">FNVZA</tspan><tspan id="neon">DATA</tspan>YR7H1><tspan id="else">LBTBRO</tspan><tspan id="texts">8HPAQVE</tspan>QKNI0Z9EQN3NJQBNOCJOUGJ
		</text>
		<text x="0" y="28" id="bases">
			<tspan id="texts">AFG</tspan><tspan id="else">IFZV7QAL</tspan>UTJO4M<tspan id="else">5J2NKXLFL</tspan><tspan id="texts">I84O45</tspan><tspan id="else">P6</tspan><tspan id="neon">CYBER ATTACK</tspan><tspan id="else">6JSZ8I</tspan><tspan id="texts">YWJQ</tspan><tspan id="neon">RESTORE</tspan><tspan id="texts">YR</tspan><tspan id="else">OIRA0P</tspan>MFX1K<tspan id="texts">OIX9O</tspan><tspan id="else">YLCFQ7D</tspan>FNZXDLEMWVX
		</text>
		<text x="0" y="44" id="bases">
			<tspan id="else">IS</tspan>QR<tspan id="else">BWI</tspan><tspan id="neon">SECURITY BREACH</tspan><tspan id="else">ACUU</tspan><tspan id="texts">7D4P</tspan><tspan id="else">L8TE</tspan>LYUZGP<tspan id="else">MV1KZE</tspan><tspan id="texts">RCFCGCQG</tspan><tspan id="else">4MNH3Q7</tspan>A7HB93B<tspan id="else">YSPCGZS</tspan>E0H7FLZB0TIIGLTYIH1VZNH346DEF
		</text>
		<text x="0" y="60" id="bases">
			<tspan id="texts">UJ5XA</tspan>2GFC<tspan id="else">HIS65T1</tspan>L0XXLGGCL<tspan id="else">Z7SFFH</tspan><tspan id="texts">12NUHH</tspan>W5EHQ9K<tspan id="else">UB1HN</tspan><tspan id="neon">SYSTEM PROTECTION</tspan><tspan id="else">WADW3X</tspan><tspan id="texts">G88BOG</tspan>W7QEMASBGY7CYOBGZZVDVHAT2SQK7U0DV
		</text>
		<text x="0" y="76" id="bases">
			QSGPXB7XODMCMQ3BHEASN3QLO8HPAQVEQKJQBNOCJOUGJDGZZVDVHAT2SQK7U0DVUCKRM4QTORMBMWYGCBLEKLBQ4UCMDTU			
		</text>
		<text x="0" y="92" id="bases">
			WVPE080<tspan id="python">0WNGXZ</tspan>QAR9<tspan id="python">SI</tspan>JJUC<tspan id="python">8S</tspan>9Q<tspan id="python">VNG9XKYT</tspan>XQY<tspan id="python">RN</tspan>VYCL<tspan id="python">1Q</tspan>R8YHC<tspan id="python">UPO8AX</tspan>RNLGK<tspan id="python">ZA</tspan>QTWM<tspan id="python">TW</tspan>BDFCUVD65T1L0XXLGGCLZ7
		</text>
		<text x="0" y="108" id="bases">
			NYQUASX<tspan id="python">T4</tspan>3KA<tspan id="python">7A1</tspan>ZE<tspan id="python">QL</tspan>ELBQ<tspan id="python">PV</tspan>1PZJQ<tspan id="python">HF</tspan>JV3DYK<tspan id="python">9R</tspan>AWQ7<tspan id="python">JY</tspan>3DFW<tspan id="python">34</tspan>609D<tspan id="python">GI</tspan>WJWC<tspan id="python">NSK</tspan>GSN<tspan id="python">DW</tspan>JGVEOQLHWIACUU7D4PL8TE
		</text>
		<text x="0" y="124" id="bases">
			NNCGVSU<tspan id="python">A1</tspan>JB1<tspan id="python">6FC</tspan>FGU<tspan id="python">5T</tspan>CD<tspan id="python">6N</tspan>QFTMVD<tspan id="python">AR</tspan>GSKFAB<tspan id="python">AF</tspan>HOIV<tspan id="python">CH</tspan>5NH<tspan id="python">PT</tspan>GJ3HWI<tspan id="python">LH</tspan>GI8<tspan id="python">NSGX</tspan>JD<tspan id="python">O2</tspan>UIEUJJPXG88BOGW7QEM
		</text>
		<text x="0" y="140" id="bases">
			QFE053K<tspan id="python">NN4KUU</tspan>LDMMNX<tspan id="python">WADL</tspan>RPSZ8GI<tspan id="python">NZ</tspan>63UGOH<tspan id="python">6COBU8GX</tspan>8CD<tspan id="python">4Z</tspan>LP6HV2<tspan id="python">LQ</tspan>HQQ<tspan id="python">KF</tspan>4<tspan id="python">MG</tspan>H<tspan id="python">RI</tspan>LWJK7S7I0Z9EQN3N7H1LBTB
		</text>
		<text x="0" y="156" id="bases">
			M7B23X4<tspan id="python">5I</tspan>UG4H7CZ1QS7<tspan id="python">O3</tspan>H6HMUWUW<tspan id="python">AY</tspan>CIHMRV<tspan id="python">L4</tspan>KAJ1<tspan id="python">DT</tspan>SHU<tspan id="python">DX</tspan>MH9PMC<tspan id="python">YG</tspan>TPA<tspan id="python">0A</tspan>H3<tspan id="python">TD3Z</tspan>SHVATRMEMWVXZB921KR
		</text>
		<text x="0" y="172" id="bases">
			JZ3RLX4<tspan id="python">5I</tspan>UG4HVGCTROC<tspan id="python">EZ</tspan>0KKHCED2<tspan id="python">3Q</tspan>2JZBLH<tspan id="python">QS</tspan>K2JW<tspan id="python">S3</tspan>3S5K<tspan id="python">0C</tspan>CLYX<tspan id="python">OG</tspan>NA5V<tspan id="python">DC</tspan>OAJ<tspan id="python">S6K</tspan>JNXY8MT2NUHHW5EHQ9KUB1HN
		</text>
		<text x="0" y="188" id="bases">
			FQGBJ9T<tspan id="python">DJ</tspan>LD8T5DWIILZ<tspan id="python">UF</tspan>X5TKJAZ7<tspan id="python">VD</tspan>QV1RXE<tspan id="python">PB</tspan>VULL<tspan id="python">WE</tspan>EGFFZ<tspan id="python">TMNA4X</tspan>LTGNV<tspan id="python">73</tspan>RKHE<tspan id="python">FC</tspan>BURQMMCOMGMJUDSENXQE2
		</text>
		<text x="0" y="204" id="bases">
			RPX0MGMJUDSENXQE2BAOMFIQHQUP1BQ6WYGCBLEKLBLQ4UCMDTULCFQ7DFNZXDLEMWVXZB921KRQAP1JPQA14ERRWW1IW
		</text>
		<text x="0" y="220" id="bases">
			SZ<tspan id="else">8A</tspan>63<tspan id="else">RYBO</tspan><tspan id="neon">SYSTEM</tspan><tspan id="texts">JA3RYY3M</tspan>Q1TL<tspan id="else">D26G</tspan><tspan id="texts">W2T2T</tspan><tspan id="else">YT5YU</tspan>1V<tspan id="texts">DRCY</tspan><tspan id="neon">NEURAL NETWORK</tspan><tspan id="else">QO02</tspan>OHQ<tspan id="texts">EVXEG</tspan>JERKNCBC9DASZCW9J0L1LZNG88BOGW7QEMASBGY7CYOB
		</text>
		<text x="0" y="236" id="bases">
			<tspan id="else">D9FPT</tspan>P1JPQ<tspan id="else">A14ERR</tspan><tspan id="texts">WW1IWEX</tspan><tspan id="else">BT3H1VZ</tspan><tspan id="neon">SAFETY</tspan><tspan id="else">NH346DEF01</tspan>RWHBS0<tspan id="else">RQ6M</tspan><tspan id="texts">T4LUHCT</tspan><tspan id="else">RP1OL</tspan>O9PK<tspan id="else">M73IO</tspan>NH2MRJZ7SFFH12NUHHW5EHQ9
		</text>
	</g>
</svg>
